<?xml version="1.0" encoding="utf-8"?>
<!-- Generator: Adobe Illustrator 26.3.1, SVG Export Plug-In . SVG Version: 6.00 Build 0)  -->
<svg version="1.1" id="Layer_1" xmlns="http://www.w3.org/2000/svg" xmlns:xlink="http://www.w3.org/1999/xlink" x="0px" y="0px" viewBox="0 0 48 48" style="enable-background:new 0 0 48 48;" xml:space="preserve">
    <style type="text/css">
        .light-mode {
            fill: #000000;
        }

    </style>
    <path class="light-mode" d="M24,34c-2.8,0-5.1-1-7.1-2.9C15,29.1,14,26.8,14,24s1-5.1,2.9-7.1S21.2,14,24,14s5.1,1,7.1,2.9
	c1.9,2,2.9,4.3,2.9,7.1s-1,5.1-2.9,7.1C29.1,33,26.8,34,24,34z M3.5,25.5c-0.4,0-0.8-0.1-1.1-0.4C2.1,24.8,2,24.4,2,24
	s0.1-0.8,0.4-1.1c0.3-0.3,0.6-0.4,1.1-0.4h5c0.4,0,0.8,0.1,1.1,0.4C9.9,23.2,10,23.6,10,24s-0.1,0.8-0.4,1.1
	c-0.3,0.3-0.6,0.4-1.1,0.4H3.5z M39.5,25.5c-0.4,0-0.8-0.1-1.1-0.4C38.1,24.8,38,24.4,38,24s0.1-0.8,0.4-1.1
	c0.3-0.3,0.6-0.4,1.1-0.4h5c0.4,0,0.8,0.1,1.1,0.4c0.3,0.3,0.4,0.6,0.4,1.1s-0.1,0.8-0.4,1.1c-0.3,0.3-0.6,0.4-1.1,0.4H39.5z M24,10
	c-0.4,0-0.8-0.1-1.1-0.4c-0.3-0.3-0.4-0.6-0.4-1.1v-5c0-0.4,0.1-0.8,0.4-1.1C23.2,2.1,23.6,2,24,2s0.8,0.1,1.1,0.4
	c0.3,0.3,0.4,0.6,0.4,1.1v5c0,0.4-0.1,0.8-0.4,1.1C24.8,9.9,24.4,10,24,10z M24,46c-0.4,0-0.8-0.1-1.1-0.4c-0.3-0.3-0.4-0.6-0.4-1.1
	v-5c0-0.4,0.1-0.8,0.4-1.1c0.3-0.3,0.6-0.4,1.1-0.4s0.8,0.1,1.1,0.4c0.3,0.3,0.4,0.6,0.4,1.1v5c0,0.4-0.1,0.8-0.4,1.1
	C24.8,45.9,24.4,46,24,46z M12,14.1l-2.9-2.8c-0.3-0.3-0.4-0.7-0.4-1.1c0-0.4,0.2-0.8,0.4-1.1c0.3-0.3,0.7-0.4,1.1-0.4
	s0.8,0.1,1.1,0.4l2.8,2.9c0.3,0.3,0.4,0.7,0.4,1.1s-0.1,0.7-0.4,1c-0.3,0.3-0.6,0.4-1,0.4C12.7,14.5,12.3,14.4,12,14.1z M36.7,38.8
	L33.9,36c-0.3-0.3-0.4-0.7-0.4-1.1c0-0.4,0.1-0.8,0.5-1c0.3-0.3,0.6-0.5,1-0.5s0.8,0.2,1,0.5l2.8,2.8c0.3,0.3,0.4,0.7,0.4,1.1
	s-0.2,0.8-0.4,1.1c-0.3,0.3-0.7,0.5-1.1,0.5S37,39.1,36.7,38.8z M33.9,14.1c-0.3-0.3-0.5-0.7-0.5-1.1s0.2-0.8,0.5-1.1l2.8-2.9
	c0.3-0.3,0.7-0.4,1.1-0.4c0.4,0,0.8,0.2,1.1,0.4c0.3,0.3,0.5,0.7,0.5,1.1s-0.2,0.8-0.5,1.1L36,14.1c-0.3,0.3-0.6,0.4-1,0.4
	S34.2,14.4,33.9,14.1z M9.1,38.8c-0.3-0.3-0.4-0.7-0.4-1.1s0.1-0.8,0.4-1.1l2.9-2.8c0.3-0.3,0.7-0.5,1.1-0.5s0.8,0.2,1.1,0.5
	s0.4,0.6,0.4,1s-0.1,0.8-0.4,1l-2.8,2.8c-0.3,0.3-0.7,0.4-1.1,0.4S9.4,39.1,9.1,38.8z" />
</svg>
